<?xml version="1.0" encoding="utf-8"?>
<!-- Generator: Adobe Illustrator 16.0.3, SVG Export Plug-In . SVG Version: 6.00 Build 0)  -->
<!DOCTYPE svg PUBLIC "-//W3C//DTD SVG 1.1//EN" "http://www.w3.org/Graphics/SVG/1.1/DTD/svg11.dtd">
<svg version="1.1" id="Layer_1" xmlns="http://www.w3.org/2000/svg" xmlns:xlink="http://www.w3.org/1999/xlink" x="0px" y="0px"
	 width="81.014px" height="81.014px" viewBox="0 0 81.014 81.014" enable-background="new 0 0 81.014 81.014" xml:space="preserve">
<g>
	<line fill="none" stroke="#000000" stroke-linecap="round" stroke-miterlimit="10" x1="-0.14" y1="0.066" x2="20.11" y2="35.141"/>
	<line fill="none" stroke="#000000" stroke-linecap="round" stroke-miterlimit="10" x1="40.36" y1="0.066" x2="-0.14" y2="0.066"/>
	<line fill="none" stroke="#000000" stroke-miterlimit="10" x1="40.36" y1="0.066" x2="60.61" y2="35.141"/>
	<line fill="none" stroke="#000000" stroke-miterlimit="10" x1="20.11" y1="35.141" x2="60.61" y2="35.141"/>
	
		<line fill="none" stroke="#000000" stroke-linecap="round" stroke-miterlimit="10" x1="20.11" y1="35.141" x2="60.61" y2="105.289"/>
	<line fill="none" stroke="#000000" stroke-miterlimit="10" x1="20.11" y1="35.141" x2="60.61" y2="35.141"/>
	<line fill="none" stroke="#000000" stroke-miterlimit="10" x1="33.61" y1="58.524" x2="74.11" y2="58.524"/>
	<line fill="none" stroke="#000000" stroke-miterlimit="10" x1="26.86" y1="46.833" x2="67.36" y2="46.833"/>
	<line fill="none" stroke="#000000" stroke-miterlimit="10" x1="60.61" y1="35.141" x2="80.86" y2="70.215"/>
	<line fill="none" stroke="#000000" stroke-miterlimit="10" x1="40.36" y1="70.215" x2="80.86" y2="70.215"/>
	<line fill="none" stroke="#000000" stroke-miterlimit="10" x1="40.36" y1="0.066" x2="60.61" y2="35.141"/>
	<line fill="none" stroke="#000000" stroke-linecap="round" stroke-miterlimit="10" x1="40.36" y1="0.066" x2="121.36" y2="0.067"/>
	<line fill="none" stroke="#000000" stroke-miterlimit="10" x1="80.86" y1="0.066" x2="101.11" y2="35.141"/>
	<line fill="none" stroke="#000000" stroke-miterlimit="10" x1="60.61" y1="35.141" x2="101.11" y2="35.141"/>
	
		<line fill="none" stroke="#000000" stroke-linecap="round" stroke-miterlimit="10" x1="121.36" y1="0.067" x2="60.61" y2="105.289"/>
	<line fill="none" stroke="#000000" stroke-miterlimit="10" x1="107.86" y1="0.066" x2="114.61" y2="11.759"/>
	<line fill="none" stroke="#000000" stroke-miterlimit="10" x1="94.36" y1="0.066" x2="107.86" y2="23.45"/>
	<line fill="none" stroke="#000000" stroke-linecap="round" stroke-miterlimit="10" x1="-0.14" y1="0.066" x2="20.11" y2="35.141"/>
	<line fill="none" stroke="#000000" stroke-miterlimit="10" x1="26.86" y1="0.066" x2="47.11" y2="35.141"/>
	<line fill="none" stroke="#000000" stroke-miterlimit="10" x1="13.36" y1="0.066" x2="33.61" y2="35.141"/>
	<line fill="none" stroke="#000000" stroke-linecap="round" stroke-miterlimit="10" x1="-0.14" y1="0.066" x2="20.11" y2="35.141"/>
	<line fill="none" stroke="#000000" stroke-miterlimit="10" x1="40.36" y1="0.066" x2="60.61" y2="35.141"/>
	<line fill="none" stroke="#000000" stroke-linecap="round" stroke-miterlimit="10" x1="40.36" y1="0.066" x2="80.86" y2="0.066"/>
	<line fill="none" stroke="#000000" stroke-linecap="round" stroke-miterlimit="10" x1="40.36" y1="0.066" x2="80.86" y2="0.066"/>
	<line fill="none" stroke="#000000" stroke-miterlimit="10" x1="53.86" y1="23.45" x2="94.36" y2="23.45"/>
	<line fill="none" stroke="#000000" stroke-miterlimit="10" x1="47.11" y1="11.759" x2="87.61" y2="11.759"/>
	<line fill="none" stroke="#000000" stroke-miterlimit="10" x1="60.61" y1="35.141" x2="101.11" y2="35.141"/>
	
		<line fill="none" stroke="#000000" stroke-linecap="round" stroke-miterlimit="10" x1="60.276" y1="105.482" x2="80.526" y2="70.408"/>
	
		<line fill="none" stroke="#000000" stroke-linecap="round" stroke-miterlimit="10" x1="60.276" y1="105.482" x2="80.526" y2="70.408"/>
	<line fill="none" stroke="#000000" stroke-miterlimit="10" x1="46.776" y1="82.099" x2="53.86" y2="70.215"/>
	<line fill="none" stroke="#000000" stroke-miterlimit="10" x1="53.526" y1="93.79" x2="67.249" y2="70.021"/>
	<path fill="none" stroke="#000000" stroke-miterlimit="10" d="M60.276,35.334"/>
	<path fill="none" stroke="#000000" stroke-linecap="round" stroke-miterlimit="10" d="M40.026,70.408"/>
</g>
<g>
	
		<line fill="none" stroke="#000000" stroke-linecap="round" stroke-miterlimit="10" x1="-0.14" y1="-0.319" x2="40.36" y2="-0.319"/>
	
		<line fill="none" stroke="#000000" stroke-linecap="round" stroke-miterlimit="10" x1="20.11" y1="-35.394" x2="-0.14" y2="-0.319"/>
	<line fill="none" stroke="#000000" stroke-miterlimit="10" x1="20.11" y1="-35.394" x2="60.61" y2="-35.394"/>
	<line fill="none" stroke="#000000" stroke-miterlimit="10" x1="40.36" y1="-0.319" x2="60.61" y2="-35.394"/>
	
		<line fill="none" stroke="#000000" stroke-linecap="round" stroke-miterlimit="10" x1="40.36" y1="-0.319" x2="121.36" y2="-0.319"/>
	<line fill="none" stroke="#000000" stroke-miterlimit="10" x1="40.36" y1="-0.319" x2="60.61" y2="-35.394"/>
	<line fill="none" stroke="#000000" stroke-miterlimit="10" x1="67.36" y1="-0.319" x2="87.61" y2="-35.394"/>
	<line fill="none" stroke="#000000" stroke-miterlimit="10" x1="53.86" y1="-0.319" x2="74.11" y2="-35.394"/>
	<line fill="none" stroke="#000000" stroke-miterlimit="10" x1="60.61" y1="-35.394" x2="101.11" y2="-35.394"/>
	<line fill="none" stroke="#000000" stroke-miterlimit="10" x1="80.86" y1="-0.319" x2="101.11" y2="-35.394"/>
	<line fill="none" stroke="#000000" stroke-miterlimit="10" x1="20.11" y1="-35.394" x2="60.61" y2="-35.394"/>
	
		<line fill="none" stroke="#000000" stroke-linecap="round" stroke-miterlimit="10" x1="20.11" y1="-35.394" x2="60.611" y2="-105.541"/>
	<line fill="none" stroke="#000000" stroke-miterlimit="10" x1="40.36" y1="-70.468" x2="80.86" y2="-70.468"/>
	<line fill="none" stroke="#000000" stroke-miterlimit="10" x1="60.61" y1="-35.394" x2="80.86" y2="-70.468"/>
	
		<line fill="none" stroke="#000000" stroke-linecap="round" stroke-miterlimit="10" x1="60.611" y1="-105.541" x2="121.36" y2="-0.319"/>
	<line fill="none" stroke="#000000" stroke-miterlimit="10" x1="53.86" y1="-93.851" x2="67.36" y2="-93.85"/>
	<line fill="none" stroke="#000000" stroke-miterlimit="10" x1="47.11" y1="-82.159" x2="74.11" y2="-82.159"/>
	
		<line fill="none" stroke="#000000" stroke-linecap="round" stroke-miterlimit="10" x1="-0.14" y1="-0.319" x2="40.36" y2="-0.319"/>
	<line fill="none" stroke="#000000" stroke-miterlimit="10" x1="13.36" y1="-23.702" x2="53.86" y2="-23.702"/>
	<line fill="none" stroke="#000000" stroke-miterlimit="10" x1="6.61" y1="-12.011" x2="47.11" y2="-12.011"/>
	
		<line fill="none" stroke="#000000" stroke-linecap="round" stroke-miterlimit="10" x1="-0.14" y1="-0.319" x2="40.36" y2="-0.319"/>
	<line fill="none" stroke="#000000" stroke-miterlimit="10" x1="20.11" y1="-35.394" x2="60.61" y2="-35.394"/>
	
		<line fill="none" stroke="#000000" stroke-linecap="round" stroke-miterlimit="10" x1="20.11" y1="-35.394" x2="40.36" y2="-70.468"/>
	
		<line fill="none" stroke="#000000" stroke-linecap="round" stroke-miterlimit="10" x1="20.11" y1="-35.394" x2="40.36" y2="-70.468"/>
	<line fill="none" stroke="#000000" stroke-miterlimit="10" x1="47.11" y1="-35.394" x2="67.36" y2="-70.468"/>
	<line fill="none" stroke="#000000" stroke-miterlimit="10" x1="33.61" y1="-35.394" x2="53.86" y2="-70.468"/>
	<line fill="none" stroke="#000000" stroke-miterlimit="10" x1="60.61" y1="-35.394" x2="80.86" y2="-70.468"/>
	
		<line fill="none" stroke="#000000" stroke-linecap="round" stroke-miterlimit="10" x1="121.36" y1="0.066" x2="101.11" y2="-35.008"/>
	
		<line fill="none" stroke="#000000" stroke-linecap="round" stroke-miterlimit="10" x1="121.36" y1="0.066" x2="101.11" y2="-35.008"/>
	<line fill="none" stroke="#000000" stroke-miterlimit="10" x1="94.36" y1="0.066" x2="87.61" y2="-12.011"/>
	<line fill="none" stroke="#000000" stroke-miterlimit="10" x1="107.86" y1="0.066" x2="94.137" y2="-23.702"/>
	<path fill="none" stroke="#000000" stroke-miterlimit="10" d="M60.61-35.008"/>
	<path fill="none" stroke="#000000" stroke-linecap="round" stroke-miterlimit="10" d="M80.86,0.066"/>
</g>
<g>
	
		<line fill="none" stroke="#000000" stroke-linecap="round" stroke-miterlimit="10" x1="-0.14" y1="0.066" x2="20.11" y2="-35.008"/>
	
		<line fill="none" stroke="#000000" stroke-linecap="round" stroke-miterlimit="10" x1="-20.39" y1="-35.008" x2="-0.14" y2="0.066"/>
	<line fill="none" stroke="#000000" stroke-miterlimit="10" x1="-20.39" y1="-35.008" x2="-0.14" y2="-70.082"/>
	<line fill="none" stroke="#000000" stroke-miterlimit="10" x1="20.11" y1="-35.008" x2="-0.14" y2="-70.082"/>
	
		<line fill="none" stroke="#000000" stroke-linecap="round" stroke-miterlimit="10" x1="20.11" y1="-35.008" x2="60.61" y2="-105.156"/>
	<line fill="none" stroke="#000000" stroke-miterlimit="10" x1="20.11" y1="-35.008" x2="-0.14" y2="-70.082"/>
	<line fill="none" stroke="#000000" stroke-miterlimit="10" x1="33.61" y1="-58.392" x2="13.36" y2="-93.466"/>
	<line fill="none" stroke="#000000" stroke-miterlimit="10" x1="26.861" y1="-46.698" x2="6.611" y2="-81.772"/>
	<line fill="none" stroke="#000000" stroke-miterlimit="10" x1="-0.14" y1="-70.082" x2="20.11" y2="-105.155"/>
	<line fill="none" stroke="#000000" stroke-miterlimit="10" x1="40.36" y1="-70.082" x2="20.11" y2="-105.155"/>
	<line fill="none" stroke="#000000" stroke-miterlimit="10" x1="-20.39" y1="-35.008" x2="-0.14" y2="-70.082"/>
	
		<line fill="none" stroke="#000000" stroke-linecap="round" stroke-miterlimit="10" x1="-20.39" y1="-35.008" x2="-60.889" y2="-105.156"/>
	<line fill="none" stroke="#000000" stroke-miterlimit="10" x1="-40.64" y1="-70.081" x2="-20.39" y2="-105.155"/>
	<line fill="none" stroke="#000000" stroke-miterlimit="10" x1="-0.14" y1="-70.082" x2="-20.39" y2="-105.155"/>
	
		<line fill="none" stroke="#000000" stroke-linecap="round" stroke-miterlimit="10" x1="-60.889" y1="-105.156" x2="60.61" y2="-105.156"/>
	<line fill="none" stroke="#000000" stroke-miterlimit="10" x1="-54.14" y1="-93.466" x2="-47.39" y2="-105.156"/>
	<line fill="none" stroke="#000000" stroke-miterlimit="10" x1="-47.39" y1="-81.772" x2="-33.89" y2="-105.156"/>
	
		<line fill="none" stroke="#000000" stroke-linecap="round" stroke-miterlimit="10" x1="-0.14" y1="0.066" x2="20.11" y2="-35.008"/>
	<line fill="none" stroke="#000000" stroke-miterlimit="10" x1="-13.64" y1="-23.317" x2="6.61" y2="-58.392"/>
	<line fill="none" stroke="#000000" stroke-miterlimit="10" x1="-6.89" y1="-11.624" x2="13.36" y2="-46.698"/>
	
		<line fill="none" stroke="#000000" stroke-linecap="round" stroke-miterlimit="10" x1="-0.14" y1="0.066" x2="20.11" y2="-35.008"/>
	<line fill="none" stroke="#000000" stroke-miterlimit="10" x1="-20.39" y1="-35.008" x2="-0.14" y2="-70.082"/>
	
		<line fill="none" stroke="#000000" stroke-linecap="round" stroke-miterlimit="10" x1="-20.39" y1="-35.008" x2="-40.64" y2="-70.081"/>
	
		<line fill="none" stroke="#000000" stroke-linecap="round" stroke-miterlimit="10" x1="-20.39" y1="-35.008" x2="-40.64" y2="-70.081"/>
	<line fill="none" stroke="#000000" stroke-miterlimit="10" x1="-6.89" y1="-58.392" x2="-27.14" y2="-93.466"/>
	<line fill="none" stroke="#000000" stroke-miterlimit="10" x1="-13.64" y1="-46.698" x2="-33.89" y2="-81.772"/>
	<line fill="none" stroke="#000000" stroke-miterlimit="10" x1="-0.14" y1="-70.082" x2="-20.39" y2="-105.155"/>
	
		<line fill="none" stroke="#000000" stroke-linecap="round" stroke-miterlimit="10" x1="60.944" y1="-104.964" x2="20.444" y2="-104.964"/>
	
		<line fill="none" stroke="#000000" stroke-linecap="round" stroke-miterlimit="10" x1="60.944" y1="-104.964" x2="20.444" y2="-104.964"/>
	<line fill="none" stroke="#000000" stroke-miterlimit="10" x1="47.444" y1="-81.579" x2="33.61" y2="-81.772"/>
	<line fill="none" stroke="#000000" stroke-miterlimit="10" x1="54.194" y1="-93.272" x2="26.749" y2="-93.272"/>
	<path fill="none" stroke="#000000" stroke-miterlimit="10" d="M0.194-69.89"/>
	<path fill="none" stroke="#000000" stroke-linecap="round" stroke-miterlimit="10" d="M40.694-69.89"/>
</g>
<g>
	
		<line fill="none" stroke="#000000" stroke-linecap="round" stroke-miterlimit="10" x1="0.028" y1="-0.319" x2="-20.222" y2="-35.394"/>
	
		<line fill="none" stroke="#000000" stroke-linecap="round" stroke-miterlimit="10" x1="-40.472" y1="-0.319" x2="0.028" y2="-0.319"/>
	<line fill="none" stroke="#000000" stroke-miterlimit="10" x1="-40.472" y1="-0.319" x2="-60.722" y2="-35.394"/>
	<line fill="none" stroke="#000000" stroke-miterlimit="10" x1="-20.222" y1="-35.394" x2="-60.722" y2="-35.394"/>
	
		<line fill="none" stroke="#000000" stroke-linecap="round" stroke-miterlimit="10" x1="-20.222" y1="-35.394" x2="-60.722" y2="-105.54"/>
	<line fill="none" stroke="#000000" stroke-miterlimit="10" x1="-20.222" y1="-35.394" x2="-60.722" y2="-35.394"/>
	<line fill="none" stroke="#000000" stroke-miterlimit="10" x1="-33.721" y1="-58.774" x2="-74.221" y2="-58.774"/>
	<line fill="none" stroke="#000000" stroke-miterlimit="10" x1="-26.971" y1="-47.085" x2="-67.471" y2="-47.084"/>
	<line fill="none" stroke="#000000" stroke-miterlimit="10" x1="-60.722" y1="-35.394" x2="-80.971" y2="-70.468"/>
	<line fill="none" stroke="#000000" stroke-miterlimit="10" x1="-40.472" y1="-70.468" x2="-80.971" y2="-70.468"/>
	<line fill="none" stroke="#000000" stroke-miterlimit="10" x1="-40.472" y1="-0.319" x2="-60.722" y2="-35.394"/>
	
		<line fill="none" stroke="#000000" stroke-linecap="round" stroke-miterlimit="10" x1="-40.472" y1="-0.319" x2="-121.472" y2="-0.32"/>
	<line fill="none" stroke="#000000" stroke-miterlimit="10" x1="-80.972" y1="-0.319" x2="-101.222" y2="-35.394"/>
	<line fill="none" stroke="#000000" stroke-miterlimit="10" x1="-60.722" y1="-35.394" x2="-101.222" y2="-35.394"/>
	
		<line fill="none" stroke="#000000" stroke-linecap="round" stroke-miterlimit="10" x1="-121.472" y1="-0.32" x2="-60.722" y2="-105.54"/>
	<line fill="none" stroke="#000000" stroke-miterlimit="10" x1="-107.972" y1="-0.319" x2="-114.721" y2="-12.01"/>
	<line fill="none" stroke="#000000" stroke-miterlimit="10" x1="-94.472" y1="-0.319" x2="-107.972" y2="-23.7"/>
	
		<line fill="none" stroke="#000000" stroke-linecap="round" stroke-miterlimit="10" x1="0.028" y1="-0.319" x2="-20.222" y2="-35.394"/>
	<line fill="none" stroke="#000000" stroke-miterlimit="10" x1="-26.972" y1="-0.319" x2="-47.222" y2="-35.394"/>
	<line fill="none" stroke="#000000" stroke-miterlimit="10" x1="-13.472" y1="-0.319" x2="-33.722" y2="-35.394"/>
	
		<line fill="none" stroke="#000000" stroke-linecap="round" stroke-miterlimit="10" x1="0.028" y1="-0.319" x2="-20.222" y2="-35.394"/>
	<line fill="none" stroke="#000000" stroke-miterlimit="10" x1="-40.472" y1="-0.319" x2="-60.722" y2="-35.394"/>
	
		<line fill="none" stroke="#000000" stroke-linecap="round" stroke-miterlimit="10" x1="-40.472" y1="-0.319" x2="-80.972" y2="-0.319"/>
	
		<line fill="none" stroke="#000000" stroke-linecap="round" stroke-miterlimit="10" x1="-40.472" y1="-0.319" x2="-80.972" y2="-0.319"/>
	<line fill="none" stroke="#000000" stroke-miterlimit="10" x1="-53.971" y1="-23.7" x2="-94.472" y2="-23.7"/>
	<line fill="none" stroke="#000000" stroke-miterlimit="10" x1="-47.221" y1="-12.011" x2="-87.722" y2="-12.011"/>
	<line fill="none" stroke="#000000" stroke-miterlimit="10" x1="-60.722" y1="-35.394" x2="-101.222" y2="-35.394"/>
	
		<line fill="none" stroke="#000000" stroke-linecap="round" stroke-miterlimit="10" x1="-60.388" y1="-105.733" x2="-80.638" y2="-70.661"/>
	
		<line fill="none" stroke="#000000" stroke-linecap="round" stroke-miterlimit="10" x1="-60.388" y1="-105.733" x2="-80.638" y2="-70.661"/>
	<line fill="none" stroke="#000000" stroke-miterlimit="10" x1="-46.888" y1="-82.351" x2="-53.972" y2="-70.468"/>
	<line fill="none" stroke="#000000" stroke-miterlimit="10" x1="-53.638" y1="-94.042" x2="-67.361" y2="-70.274"/>
	<path fill="none" stroke="#000000" stroke-miterlimit="10" d="M-60.388-35.587"/>
	<path fill="none" stroke="#000000" stroke-linecap="round" stroke-miterlimit="10" d="M-40.138-70.661"/>
</g>
<g>
	
		<line fill="none" stroke="#000000" stroke-linecap="round" stroke-miterlimit="10" x1="0.195" y1="0.067" x2="-40.305" y2="0.067"/>
	
		<line fill="none" stroke="#000000" stroke-linecap="round" stroke-miterlimit="10" x1="-20.055" y1="35.141" x2="0.195" y2="0.067"/>
	<line fill="none" stroke="#000000" stroke-miterlimit="10" x1="-20.055" y1="35.141" x2="-60.556" y2="35.142"/>
	<line fill="none" stroke="#000000" stroke-miterlimit="10" x1="-40.305" y1="0.067" x2="-60.556" y2="35.142"/>
	
		<line fill="none" stroke="#000000" stroke-linecap="round" stroke-miterlimit="10" x1="-40.305" y1="0.067" x2="-121.306" y2="0.066"/>
	<line fill="none" stroke="#000000" stroke-miterlimit="10" x1="-40.305" y1="0.067" x2="-60.556" y2="35.142"/>
	<line fill="none" stroke="#000000" stroke-miterlimit="10" x1="-67.306" y1="0.066" x2="-87.556" y2="35.141"/>
	<line fill="none" stroke="#000000" stroke-miterlimit="10" x1="-53.806" y1="0.065" x2="-74.056" y2="35.14"/>
	<line fill="none" stroke="#000000" stroke-miterlimit="10" x1="-60.556" y1="35.142" x2="-101.055" y2="35.14"/>
	<line fill="none" stroke="#000000" stroke-miterlimit="10" x1="-80.806" y1="0.066" x2="-101.055" y2="35.14"/>
	<line fill="none" stroke="#000000" stroke-miterlimit="10" x1="-20.055" y1="35.141" x2="-60.556" y2="35.142"/>
	
		<line fill="none" stroke="#000000" stroke-linecap="round" stroke-miterlimit="10" x1="-20.055" y1="35.141" x2="-60.556" y2="105.288"/>
	<line fill="none" stroke="#000000" stroke-miterlimit="10" x1="-40.304" y1="70.214" x2="-80.804" y2="70.214"/>
	<line fill="none" stroke="#000000" stroke-miterlimit="10" x1="-60.556" y1="35.142" x2="-80.804" y2="70.214"/>
	
		<line fill="none" stroke="#000000" stroke-linecap="round" stroke-miterlimit="10" x1="-60.556" y1="105.288" x2="-121.306" y2="0.066"/>
	<line fill="none" stroke="#000000" stroke-miterlimit="10" x1="-53.806" y1="93.599" x2="-67.306" y2="93.599"/>
	<line fill="none" stroke="#000000" stroke-miterlimit="10" x1="-47.055" y1="81.905" x2="-74.056" y2="81.905"/>
	
		<line fill="none" stroke="#000000" stroke-linecap="round" stroke-miterlimit="10" x1="0.195" y1="0.067" x2="-40.305" y2="0.067"/>
	<line fill="none" stroke="#000000" stroke-miterlimit="10" x1="-13.306" y1="23.45" x2="-53.806" y2="23.45"/>
	<line fill="none" stroke="#000000" stroke-miterlimit="10" x1="-6.555" y1="11.757" x2="-47.055" y2="11.757"/>
	
		<line fill="none" stroke="#000000" stroke-linecap="round" stroke-miterlimit="10" x1="0.195" y1="0.067" x2="-40.305" y2="0.067"/>
	<line fill="none" stroke="#000000" stroke-miterlimit="10" x1="-20.055" y1="35.141" x2="-60.556" y2="35.142"/>
	
		<line fill="none" stroke="#000000" stroke-linecap="round" stroke-miterlimit="10" x1="-20.055" y1="35.141" x2="-40.304" y2="70.214"/>
	
		<line fill="none" stroke="#000000" stroke-linecap="round" stroke-miterlimit="10" x1="-20.055" y1="35.141" x2="-40.304" y2="70.214"/>
	<line fill="none" stroke="#000000" stroke-miterlimit="10" x1="-47.056" y1="35.141" x2="-67.306" y2="70.215"/>
	<line fill="none" stroke="#000000" stroke-miterlimit="10" x1="-33.555" y1="35.14" x2="-53.805" y2="70.214"/>
	<line fill="none" stroke="#000000" stroke-miterlimit="10" x1="-60.556" y1="35.142" x2="-80.804" y2="70.214"/>
	
		<line fill="none" stroke="#000000" stroke-linecap="round" stroke-miterlimit="10" x1="-121.306" y1="-0.319" x2="-101.056" y2="34.755"/>
	
		<line fill="none" stroke="#000000" stroke-linecap="round" stroke-miterlimit="10" x1="-121.306" y1="-0.319" x2="-101.056" y2="34.755"/>
	<line fill="none" stroke="#000000" stroke-miterlimit="10" x1="-94.305" y1="-0.319" x2="-87.555" y2="11.757"/>
	<line fill="none" stroke="#000000" stroke-miterlimit="10" x1="-107.806" y1="-0.319" x2="-94.083" y2="23.45"/>
	<path fill="none" stroke="#000000" stroke-miterlimit="10" d="M-60.556,34.755"/>
	<path fill="none" stroke="#000000" stroke-linecap="round" stroke-miterlimit="10" d="M-80.806-0.319"/>
</g>
<g>
	
		<line fill="none" stroke="#000000" stroke-linecap="round" stroke-miterlimit="10" x1="0.195" y1="0.067" x2="-20.055" y2="35.142"/>
	
		<line fill="none" stroke="#000000" stroke-linecap="round" stroke-miterlimit="10" x1="20.445" y1="35.142" x2="0.195" y2="0.067"/>
	<line fill="none" stroke="#000000" stroke-miterlimit="10" x1="20.445" y1="35.142" x2="0.195" y2="70.216"/>
	<line fill="none" stroke="#000000" stroke-miterlimit="10" x1="-20.055" y1="35.142" x2="0.195" y2="70.216"/>
	
		<line fill="none" stroke="#000000" stroke-linecap="round" stroke-miterlimit="10" x1="-20.055" y1="35.142" x2="-60.554" y2="105.289"/>
	<line fill="none" stroke="#000000" stroke-miterlimit="10" x1="-20.055" y1="35.142" x2="0.195" y2="70.216"/>
	<line fill="none" stroke="#000000" stroke-miterlimit="10" x1="-33.554" y1="58.524" x2="-13.304" y2="93.599"/>
	<line fill="none" stroke="#000000" stroke-miterlimit="10" x1="-26.806" y1="46.833" x2="-6.554" y2="81.907"/>
	<line fill="none" stroke="#000000" stroke-miterlimit="10" x1="0.195" y1="70.216" x2="-20.056" y2="105.289"/>
	<line fill="none" stroke="#000000" stroke-miterlimit="10" x1="-40.305" y1="70.216" x2="-20.056" y2="105.289"/>
	<line fill="none" stroke="#000000" stroke-miterlimit="10" x1="20.445" y1="35.142" x2="0.195" y2="70.216"/>
	
		<line fill="none" stroke="#000000" stroke-linecap="round" stroke-miterlimit="10" x1="20.445" y1="35.142" x2="60.944" y2="105.292"/>
	<line fill="none" stroke="#000000" stroke-miterlimit="10" x1="40.695" y1="70.216" x2="20.445" y2="105.29"/>
	<line fill="none" stroke="#000000" stroke-miterlimit="10" x1="0.195" y1="70.216" x2="20.445" y2="105.29"/>
	
		<line fill="none" stroke="#000000" stroke-linecap="round" stroke-miterlimit="10" x1="60.944" y1="105.292" x2="-60.554" y2="105.289"/>
	<line fill="none" stroke="#000000" stroke-miterlimit="10" x1="54.195" y1="93.6" x2="47.446" y2="105.289"/>
	<line fill="none" stroke="#000000" stroke-miterlimit="10" x1="47.445" y1="81.907" x2="33.946" y2="105.289"/>
	
		<line fill="none" stroke="#000000" stroke-linecap="round" stroke-miterlimit="10" x1="0.195" y1="0.067" x2="-20.055" y2="35.142"/>
	<line fill="none" stroke="#000000" stroke-miterlimit="10" x1="13.695" y1="23.451" x2="-6.555" y2="58.525"/>
	<line fill="none" stroke="#000000" stroke-miterlimit="10" x1="6.945" y1="11.759" x2="-13.305" y2="46.833"/>
	
		<line fill="none" stroke="#000000" stroke-linecap="round" stroke-miterlimit="10" x1="0.195" y1="0.067" x2="-20.055" y2="35.142"/>
	<line fill="none" stroke="#000000" stroke-miterlimit="10" x1="20.445" y1="35.142" x2="0.195" y2="70.216"/>
	
		<line fill="none" stroke="#000000" stroke-linecap="round" stroke-miterlimit="10" x1="20.445" y1="35.142" x2="40.695" y2="70.216"/>
	
		<line fill="none" stroke="#000000" stroke-linecap="round" stroke-miterlimit="10" x1="20.445" y1="35.142" x2="40.695" y2="70.216"/>
	<line fill="none" stroke="#000000" stroke-miterlimit="10" x1="6.946" y1="58.524" x2="27.196" y2="93.599"/>
	<line fill="none" stroke="#000000" stroke-miterlimit="10" x1="13.694" y1="46.833" x2="33.944" y2="81.907"/>
	<line fill="none" stroke="#000000" stroke-miterlimit="10" x1="0.195" y1="70.216" x2="20.445" y2="105.29"/>
	
		<line fill="none" stroke="#000000" stroke-linecap="round" stroke-miterlimit="10" x1="-60.888" y1="105.097" x2="-20.39" y2="105.099"/>
	
		<line fill="none" stroke="#000000" stroke-linecap="round" stroke-miterlimit="10" x1="-60.888" y1="105.097" x2="-20.39" y2="105.099"/>
	<line fill="none" stroke="#000000" stroke-miterlimit="10" x1="-47.388" y1="81.714" x2="-33.555" y2="81.907"/>
	<line fill="none" stroke="#000000" stroke-miterlimit="10" x1="-54.139" y1="93.406" x2="-26.694" y2="93.406"/>
	<path fill="none" stroke="#000000" stroke-miterlimit="10" d="M-0.14,70.024"/>
	<path fill="none" stroke="#000000" stroke-linecap="round" stroke-miterlimit="10" d="M-40.64,70.024"/>
</g>
</svg>
