<?xml version="1.0" encoding="utf-8"?>
<!-- Generator: Adobe Illustrator 16.0.3, SVG Export Plug-In . SVG Version: 6.00 Build 0)  -->
<!DOCTYPE svg PUBLIC "-//W3C//DTD SVG 1.1//EN" "http://www.w3.org/Graphics/SVG/1.1/DTD/svg11.dtd">
<svg version="1.1" id="Layer_1" xmlns="http://www.w3.org/2000/svg" xmlns:xlink="http://www.w3.org/1999/xlink" x="0px" y="0px"
	 width="81.014px" height="81.014px" viewBox="0 0 81.014 81.014" enable-background="new 0 0 81.014 81.014" xml:space="preserve">
<g id="Layer_2" display="none">
	<polygon display="inline" fill="none" stroke="#000000" stroke-miterlimit="10" points="207,288 247.5,217.852 328.5,217.852 
		369,288 328.5,358.148 247.5,358.148 	"/>
</g>
<g>
	<path d="M19.354-42v-11.795H5.608V-42H3.27v-25.207h2.338v11.303h13.746v-11.303h2.338V-42H19.354z"/>
	<path d="M28.231-42v-25.207h12.287v2.145h-9.949v9.246h9.211v2.109h-9.211v9.58H41.08V-42H28.231z"/>
	<path d="M46.336-42v-25.207h2.338v23.08h10.125V-42H46.336z"/>
	<path d="M63.053-42v-25.207h2.338v23.08h10.125V-42H63.053z"/>
	<path d="M88.805-41.56c-1.816,0-3.451-0.331-4.904-0.993s-2.687-1.567-3.7-2.716s-1.793-2.499-2.338-4.052s-0.817-3.22-0.817-5.001
		c0-1.969,0.272-3.771,0.817-5.405s1.339-3.035,2.382-4.201s2.32-2.074,3.832-2.725s3.234-0.976,5.168-0.976
		c1.781,0,3.381,0.319,4.799,0.958s2.625,1.523,3.621,2.654s1.761,2.47,2.294,4.017s0.8,3.229,0.8,5.045
		c0,1.91-0.261,3.683-0.782,5.317s-1.289,3.05-2.303,4.245s-2.262,2.133-3.744,2.813S90.739-41.56,88.805-41.56z M88.998-65.502
		c-1.523,0-2.874,0.29-4.052,0.87s-2.171,1.365-2.979,2.355s-1.421,2.15-1.837,3.48s-0.63,2.745-0.642,4.245
		c-0.012,1.43,0.173,2.798,0.554,4.104s0.955,2.461,1.723,3.463s1.737,1.802,2.909,2.399s2.543,0.896,4.113,0.896
		s2.95-0.272,4.14-0.817s2.183-1.301,2.979-2.268s1.397-2.118,1.802-3.454s0.606-2.795,0.606-4.377c0-1.477-0.179-2.877-0.536-4.201
		s-0.914-2.481-1.67-3.472s-1.72-1.775-2.892-2.355S90.639-65.502,88.998-65.502z"/>
	<path d="M24.996,1.2h-2.443l-5.396-18.686c-0.129-0.445-0.231-0.873-0.308-1.283s-0.12-0.809-0.132-1.195h-0.07
		c-0.047,0.68-0.217,1.494-0.51,2.443L10.547,1.2H8.104L0.668-24.007H3.27L8.824-4.231c0.129,0.434,0.231,0.847,0.308,1.239
		S9.27-2.221,9.317-1.858h0.07c0.07-0.527,0.264-1.318,0.58-2.373l5.906-19.775h1.846l5.537,19.846
		c0.105,0.398,0.199,0.788,0.281,1.169s0.146,0.753,0.193,1.116h0.07c0.023-0.234,0.07-0.498,0.141-0.791s0.152-0.621,0.246-0.984
		l5.52-20.355h2.549L24.996,1.2z"/>
	<path d="M46.459,1.64c-1.816,0-3.451-0.331-4.904-0.993s-2.687-1.567-3.7-2.716s-1.793-2.499-2.338-4.052s-0.817-3.22-0.817-5.001
		c0-1.969,0.272-3.771,0.817-5.405s1.339-3.035,2.382-4.201s2.32-2.074,3.832-2.725s3.234-0.976,5.168-0.976
		c1.781,0,3.381,0.319,4.799,0.958s2.625,1.523,3.621,2.654s1.761,2.47,2.294,4.017s0.8,3.229,0.8,5.045
		c0,1.91-0.261,3.683-0.782,5.317s-1.289,3.05-2.303,4.245s-2.262,2.133-3.744,2.813S48.393,1.64,46.459,1.64z M46.653-22.302
		c-1.523,0-2.874,0.29-4.052,0.87s-2.171,1.365-2.979,2.355s-1.421,2.15-1.837,3.48s-0.63,2.745-0.642,4.245
		c-0.012,1.43,0.173,2.798,0.554,4.104s0.955,2.461,1.723,3.463s1.737,1.802,2.909,2.399s2.543,0.896,4.113,0.896
		s2.95-0.272,4.14-0.817s2.183-1.301,2.979-2.268s1.397-2.118,1.802-3.454s0.606-2.795,0.606-4.377c0-1.477-0.179-2.877-0.536-4.201
		s-0.914-2.481-1.67-3.472s-1.72-1.775-2.892-2.355S48.293-22.302,46.653-22.302z"/>
	<path d="M77.186,1.2l-3.797-7.225c-0.375-0.715-0.738-1.313-1.09-1.793s-0.715-0.864-1.09-1.151s-0.776-0.492-1.204-0.615
		S69.1-9.768,68.573-9.768h-2.777V1.2h-2.338v-25.207h7.26c0.949,0,1.866,0.141,2.751,0.422s1.673,0.697,2.364,1.248
		s1.245,1.242,1.661,2.074s0.624,1.799,0.624,2.9c0,0.891-0.135,1.711-0.404,2.461s-0.653,1.415-1.151,1.995
		s-1.102,1.072-1.811,1.477s-1.509,0.706-2.399,0.905v0.07c0.34,0.141,0.65,0.322,0.932,0.545s0.554,0.492,0.817,0.809
		s0.524,0.68,0.782,1.09s0.527,0.879,0.809,1.406L79.928,1.2H77.186z M65.795-21.862v9.967h4.184c0.844,0,1.617-0.123,2.32-0.369
		s1.304-0.598,1.802-1.055s0.885-1.008,1.16-1.652s0.413-1.371,0.413-2.18c0-1.465-0.472-2.616-1.415-3.454
		s-2.306-1.257-4.087-1.257H65.795z"/>
	<path d="M84.217,1.2v-25.207h2.338v23.08H96.68V1.2H84.217z"/>
	<path d="M100.934,1.2v-25.207h6.627c4.313,0,7.57,1.034,9.773,3.103s3.305,5.124,3.305,9.167c0,1.945-0.308,3.715-0.923,5.309
		s-1.503,2.956-2.663,4.087s-2.566,2.004-4.219,2.619s-3.516,0.923-5.59,0.923H100.934z M103.272-21.862v20.936h3.867
		c1.734,0,3.284-0.234,4.649-0.703s2.522-1.157,3.472-2.065s1.673-2.03,2.171-3.366s0.747-2.871,0.747-4.605
		c0-6.797-3.592-10.195-10.775-10.195H103.272z"/>
</g>
</svg>
