<?xml version="1.0" encoding="utf-8"?>
<!-- Generator: Adobe Illustrator 16.0.3, SVG Export Plug-In . SVG Version: 6.00 Build 0)  -->
<!DOCTYPE svg PUBLIC "-//W3C//DTD SVG 1.1//EN" "http://www.w3.org/Graphics/SVG/1.1/DTD/svg11.dtd">
<svg version="1.1" xmlns="http://www.w3.org/2000/svg" xmlns:xlink="http://www.w3.org/1999/xlink" x="0px" y="0px"
	 width="81.014px" height="81.014px" viewBox="0 0 81.014 81.014" enable-background="new 0 0 81.014 81.014" xml:space="preserve">
<g id="Layer_2" display="none">
	<polygon display="inline" fill="none" stroke="#000000" stroke-miterlimit="10" points="207,288 247.5,217.852 328.5,217.852 
		369,288 328.5,358.148 247.5,358.148 	"/>
</g>
<g id="Layer_1">
	<g>
		<line fill="none" stroke="#000000" stroke-linecap="round" stroke-miterlimit="10" x1="0" y1="0" x2="13.5" y2="23.383"/>
		<line fill="none" stroke="#000000" stroke-linecap="round" stroke-miterlimit="10" x1="27" y1="0" x2="0" y2="0"/>
		<line fill="none" stroke="#000000" stroke-miterlimit="10" x1="27" y1="0" x2="40.5" y2="23.383"/>
		<line fill="none" stroke="#000000" stroke-miterlimit="10" x1="13.5" y1="23.383" x2="40.5" y2="23.383"/>
		<line fill="none" stroke="#000000" stroke-linecap="round" stroke-miterlimit="10" x1="13.5" y1="23.383" x2="40.5" y2="70.148"/>
		<line fill="none" stroke="#000000" stroke-miterlimit="10" x1="13.5" y1="23.383" x2="40.5" y2="23.383"/>
		<line fill="none" stroke="#000000" stroke-miterlimit="10" x1="22.5" y1="38.972" x2="49.5" y2="38.972"/>
		<line fill="none" stroke="#000000" stroke-miterlimit="10" x1="18" y1="31.178" x2="45" y2="31.178"/>
		<line fill="none" stroke="#000000" stroke-miterlimit="10" x1="40.5" y1="23.383" x2="54" y2="46.766"/>
		<line fill="none" stroke="#000000" stroke-miterlimit="10" x1="27" y1="46.766" x2="54" y2="46.766"/>
		<line fill="none" stroke="#000000" stroke-miterlimit="10" x1="27" y1="0" x2="40.5" y2="23.383"/>
		<line fill="none" stroke="#000000" stroke-linecap="round" stroke-miterlimit="10" x1="27" y1="0" x2="81" y2="0.001"/>
		<line fill="none" stroke="#000000" stroke-miterlimit="10" x1="54" y1="0" x2="67.5" y2="23.383"/>
		<line fill="none" stroke="#000000" stroke-miterlimit="10" x1="40.5" y1="23.383" x2="67.5" y2="23.383"/>
		<line fill="none" stroke="#000000" stroke-linecap="round" stroke-miterlimit="10" x1="81" y1="0.001" x2="40.5" y2="70.148"/>
		<line fill="none" stroke="#000000" stroke-miterlimit="10" x1="72" y1="0" x2="76.5" y2="7.795"/>
		<line fill="none" stroke="#000000" stroke-miterlimit="10" x1="63" y1="0" x2="72" y2="15.589"/>
		<line fill="none" stroke="#000000" stroke-linecap="round" stroke-miterlimit="10" x1="0" y1="0" x2="13.5" y2="23.383"/>
		<line fill="none" stroke="#000000" stroke-miterlimit="10" x1="18" y1="0" x2="31.5" y2="23.383"/>
		<line fill="none" stroke="#000000" stroke-miterlimit="10" x1="9" y1="0" x2="22.5" y2="23.383"/>
		<line fill="none" stroke="#000000" stroke-linecap="round" stroke-miterlimit="10" x1="0" y1="0" x2="13.5" y2="23.383"/>
		<line fill="none" stroke="#000000" stroke-miterlimit="10" x1="27" y1="0" x2="40.5" y2="23.383"/>
		<line fill="none" stroke="#000000" stroke-linecap="round" stroke-miterlimit="10" x1="27" y1="0" x2="54" y2="0"/>
		<line fill="none" stroke="#000000" stroke-linecap="round" stroke-miterlimit="10" x1="27" y1="0" x2="54" y2="0"/>
		<line fill="none" stroke="#000000" stroke-miterlimit="10" x1="36" y1="15.589" x2="63" y2="15.589"/>
		<line fill="none" stroke="#000000" stroke-miterlimit="10" x1="31.5" y1="7.795" x2="58.5" y2="7.795"/>
		<line fill="none" stroke="#000000" stroke-miterlimit="10" x1="40.5" y1="23.383" x2="67.5" y2="23.383"/>
		
			<line fill="none" stroke="#000000" stroke-linecap="round" stroke-miterlimit="10" x1="40.277" y1="70.277" x2="53.777" y2="46.895"/>
		
			<line fill="none" stroke="#000000" stroke-linecap="round" stroke-miterlimit="10" x1="40.277" y1="70.277" x2="53.777" y2="46.895"/>
		<line fill="none" stroke="#000000" stroke-miterlimit="10" x1="31.277" y1="54.688" x2="36" y2="46.766"/>
		<line fill="none" stroke="#000000" stroke-miterlimit="10" x1="35.777" y1="62.482" x2="44.926" y2="46.637"/>
		<path fill="none" stroke="#000000" stroke-miterlimit="10" d="M40.277,23.512"/>
		<path fill="none" stroke="#000000" stroke-linecap="round" stroke-miterlimit="10" d="M26.777,46.895"/>
	</g>
</g>
</svg>
