<?xml version="1.0" encoding="utf-8"?>
<!-- Generator: Adobe Illustrator 16.0.3, SVG Export Plug-In . SVG Version: 6.00 Build 0)  -->
<!DOCTYPE svg PUBLIC "-//W3C//DTD SVG 1.1//EN" "http://www.w3.org/Graphics/SVG/1.1/DTD/svg11.dtd">
<svg version="1.1" xmlns="http://www.w3.org/2000/svg" xmlns:xlink="http://www.w3.org/1999/xlink" x="0px" y="0px"
	 width="81.014px" height="81.014px" viewBox="0 0 81.014 81.014" enable-background="new 0 0 81.014 81.014" xml:space="preserve">
<g id="Layer_2" display="none">
	<polygon display="inline" fill="none" stroke="#000000" stroke-miterlimit="10" points="207,288 247.5,217.852 328.5,217.852 
		369,288 328.5,358.148 247.5,358.148 	"/>
</g>
<g id="Layer_1">
	<line fill="none" stroke="#000000" stroke-linecap="round" stroke-miterlimit="10" x1="0" y1="0" x2="20.25" y2="35.074"/>
	<line fill="none" stroke="#000000" stroke-linecap="round" stroke-miterlimit="10" x1="40.5" y1="0" x2="0" y2="0"/>
	<line fill="none" stroke="#000000" stroke-linecap="round" stroke-miterlimit="10" x1="40.5" y1="0" x2="60.75" y2="35.074"/>
	
		<line fill="none" stroke="#000000" stroke-linecap="round" stroke-miterlimit="10" x1="20.25" y1="35.074" x2="60.75" y2="35.074"/>
	
		<line fill="none" stroke="#000000" stroke-linecap="round" stroke-miterlimit="10" x1="20.25" y1="35.074" x2="60.75" y2="105.223"/>
	
		<line fill="none" stroke="#000000" stroke-linecap="round" stroke-miterlimit="10" x1="20.25" y1="35.074" x2="60.75" y2="35.074"/>
	
		<line fill="none" stroke="#000000" stroke-linecap="round" stroke-miterlimit="10" x1="33.75" y1="58.458" x2="74.25" y2="58.458"/>
	<line fill="none" stroke="#000000" stroke-linecap="round" stroke-miterlimit="10" x1="27" y1="46.767" x2="67.5" y2="46.767"/>
	<line fill="none" stroke="#000000" stroke-linecap="round" stroke-miterlimit="10" x1="67.5" y1="0" x2="87.75" y2="35.074"/>
	<line fill="none" stroke="#000000" stroke-linecap="round" stroke-miterlimit="10" x1="54.001" y1="0" x2="74.251" y2="35.074"/>
	<line fill="none" stroke="#000000" stroke-linecap="round" stroke-miterlimit="10" x1="60.75" y1="35.074" x2="81" y2="70.148"/>
	<line fill="none" stroke="#000000" stroke-linecap="round" stroke-miterlimit="10" x1="40.5" y1="70.148" x2="81" y2="70.148"/>
	<line fill="none" stroke="#000000" stroke-linecap="round" stroke-miterlimit="10" x1="40.5" y1="0" x2="60.75" y2="35.074"/>
	<line fill="none" stroke="#000000" stroke-linecap="round" stroke-miterlimit="10" x1="40.5" y1="0" x2="121.5" y2="0.002"/>
	<line fill="none" stroke="#000000" stroke-linecap="round" stroke-miterlimit="10" x1="81" y1="0" x2="101.25" y2="35.074"/>
	
		<line fill="none" stroke="#000000" stroke-linecap="round" stroke-miterlimit="10" x1="60.75" y1="35.074" x2="101.25" y2="35.074"/>
	
		<line fill="none" stroke="#000000" stroke-linecap="round" stroke-miterlimit="10" x1="121.5" y1="0.002" x2="60.75" y2="105.223"/>
	<line fill="none" stroke="#000000" stroke-linecap="round" stroke-miterlimit="10" x1="0" y1="0" x2="-20.25" y2="35.073"/>
	<line fill="none" stroke="#000000" stroke-linecap="round" stroke-miterlimit="10" x1="20.25" y1="35.073" x2="0" y2="0"/>
	<line fill="none" stroke="#000000" stroke-linecap="round" stroke-miterlimit="10" x1="20.25" y1="35.073" x2="0" y2="70.147"/>
	<line fill="none" stroke="#000000" stroke-linecap="round" stroke-miterlimit="10" x1="-20.25" y1="35.073" x2="0" y2="70.147"/>
	
		<line fill="none" stroke="#000000" stroke-linecap="round" stroke-miterlimit="10" x1="-20.25" y1="35.073" x2="-60.75" y2="105.222"/>
	<line fill="none" stroke="#000000" stroke-linecap="round" stroke-miterlimit="10" x1="-20.25" y1="35.073" x2="0" y2="70.147"/>
	
		<line fill="none" stroke="#000000" stroke-linecap="round" stroke-miterlimit="10" x1="-33.75" y1="58.456" x2="-13.5" y2="93.53"/>
	
		<line fill="none" stroke="#000000" stroke-linecap="round" stroke-miterlimit="10" x1="-27.001" y1="46.766" x2="-6.751" y2="81.84"/>
	<line fill="none" stroke="#000000" stroke-linecap="round" stroke-miterlimit="10" x1="33.75" y1="58.456" x2="13.5" y2="93.53"/>
	
		<line fill="none" stroke="#000000" stroke-linecap="round" stroke-miterlimit="10" x1="27.001" y1="46.767" x2="6.75" y2="81.841"/>
	<line fill="none" stroke="#000000" stroke-linecap="round" stroke-miterlimit="10" x1="0" y1="70.147" x2="-20.25" y2="105.222"/>
	
		<line fill="none" stroke="#000000" stroke-linecap="round" stroke-miterlimit="10" x1="-40.5" y1="70.147" x2="-20.25" y2="105.222"/>
	<line fill="none" stroke="#000000" stroke-linecap="round" stroke-miterlimit="10" x1="20.25" y1="35.073" x2="0" y2="70.147"/>
	
		<line fill="none" stroke="#000000" stroke-linecap="round" stroke-miterlimit="10" x1="20.25" y1="35.073" x2="60.749" y2="105.223"/>
	
		<line fill="none" stroke="#000000" stroke-linecap="round" stroke-miterlimit="10" x1="40.5" y1="70.147" x2="20.25" y2="105.222"/>
	<line fill="none" stroke="#000000" stroke-linecap="round" stroke-miterlimit="10" x1="0" y1="70.147" x2="20.25" y2="105.222"/>
	
		<line fill="none" stroke="#000000" stroke-linecap="round" stroke-miterlimit="10" x1="60.749" y1="105.223" x2="-60.75" y2="105.222"/>
	<line fill="none" stroke="#000000" stroke-linecap="round" stroke-miterlimit="10" x1="0" y1="-0.001" x2="20.25" y2="-35.074"/>
	<line fill="none" stroke="#000000" stroke-linecap="round" stroke-miterlimit="10" x1="-20.25" y1="-35.074" x2="0" y2="-0.001"/>
	<line fill="none" stroke="#000000" stroke-linecap="round" stroke-miterlimit="10" x1="-20.25" y1="-35.074" x2="0" y2="-70.148"/>
	<line fill="none" stroke="#000000" stroke-linecap="round" stroke-miterlimit="10" x1="20.25" y1="-35.074" x2="0" y2="-70.148"/>
	
		<line fill="none" stroke="#000000" stroke-linecap="round" stroke-miterlimit="10" x1="20.25" y1="-35.074" x2="60.75" y2="-105.223"/>
	<line fill="none" stroke="#000000" stroke-linecap="round" stroke-miterlimit="10" x1="20.25" y1="-35.074" x2="0" y2="-70.148"/>
	
		<line fill="none" stroke="#000000" stroke-linecap="round" stroke-miterlimit="10" x1="33.75" y1="-58.457" x2="13.5" y2="-93.531"/>
	
		<line fill="none" stroke="#000000" stroke-linecap="round" stroke-miterlimit="10" x1="27.001" y1="-46.767" x2="6.751" y2="-81.841"/>
	
		<line fill="none" stroke="#000000" stroke-linecap="round" stroke-miterlimit="10" x1="-33.75" y1="-58.457" x2="-13.5" y2="-93.531"/>
	
		<line fill="none" stroke="#000000" stroke-linecap="round" stroke-miterlimit="10" x1="-27.001" y1="-46.768" x2="-6.75" y2="-81.842"/>
	<line fill="none" stroke="#000000" stroke-linecap="round" stroke-miterlimit="10" x1="0" y1="-70.148" x2="20.25" y2="-105.223"/>
	
		<line fill="none" stroke="#000000" stroke-linecap="round" stroke-miterlimit="10" x1="40.5" y1="-70.148" x2="20.25" y2="-105.223"/>
	<line fill="none" stroke="#000000" stroke-linecap="round" stroke-miterlimit="10" x1="-20.25" y1="-35.074" x2="0" y2="-70.148"/>
	
		<line fill="none" stroke="#000000" stroke-linecap="round" stroke-miterlimit="10" x1="-20.25" y1="-35.074" x2="-60.749" y2="-105.224"/>
	
		<line fill="none" stroke="#000000" stroke-linecap="round" stroke-miterlimit="10" x1="-40.5" y1="-70.148" x2="-20.25" y2="-105.223"/>
	
		<line fill="none" stroke="#000000" stroke-linecap="round" stroke-miterlimit="10" x1="0" y1="-70.148" x2="-20.25" y2="-105.223"/>
	
		<line fill="none" stroke="#000000" stroke-linecap="round" stroke-miterlimit="10" x1="-60.749" y1="-105.224" x2="60.75" y2="-105.223"/>
	<line fill="none" stroke="#000000" stroke-linecap="round" stroke-miterlimit="10" x1="-0.001" y1="-0.001" x2="40.499" y2="0"/>
	
		<line fill="none" stroke="#000000" stroke-linecap="round" stroke-miterlimit="10" x1="20.249" y1="-35.074" x2="-0.001" y2="-0.001"/>
	
		<line fill="none" stroke="#000000" stroke-linecap="round" stroke-miterlimit="10" x1="20.249" y1="-35.074" x2="60.749" y2="-35.074"/>
	<line fill="none" stroke="#000000" stroke-linecap="round" stroke-miterlimit="10" x1="40.499" y1="0" x2="60.749" y2="-35.074"/>
	<line fill="none" stroke="#000000" stroke-linecap="round" stroke-miterlimit="10" x1="40.499" y1="0" x2="121.499" y2="0"/>
	<line fill="none" stroke="#000000" stroke-linecap="round" stroke-miterlimit="10" x1="40.499" y1="0" x2="60.749" y2="-35.074"/>
	<line fill="none" stroke="#000000" stroke-linecap="round" stroke-miterlimit="10" x1="67.5" y1="0" x2="87.75" y2="-35.074"/>
	<line fill="none" stroke="#000000" stroke-linecap="round" stroke-miterlimit="10" x1="54" y1="0" x2="74.25" y2="-35.072"/>
	
		<line fill="none" stroke="#000000" stroke-linecap="round" stroke-miterlimit="10" x1="33.749" y1="-58.457" x2="74.25" y2="-58.457"/>
	<line fill="none" stroke="#000000" stroke-linecap="round" stroke-miterlimit="10" x1="27" y1="-46.768" x2="67.5" y2="-46.768"/>
	
		<line fill="none" stroke="#000000" stroke-linecap="round" stroke-miterlimit="10" x1="60.749" y1="-35.074" x2="101.249" y2="-35.074"/>
	<line fill="none" stroke="#000000" stroke-linecap="round" stroke-miterlimit="10" x1="80.999" y1="0" x2="101.249" y2="-35.074"/>
	
		<line fill="none" stroke="#000000" stroke-linecap="round" stroke-miterlimit="10" x1="20.249" y1="-35.074" x2="60.749" y2="-35.074"/>
	
		<line fill="none" stroke="#000000" stroke-linecap="round" stroke-miterlimit="10" x1="20.249" y1="-35.074" x2="60.75" y2="-105.221"/>
	
		<line fill="none" stroke="#000000" stroke-linecap="round" stroke-miterlimit="10" x1="40.499" y1="-70.148" x2="80.999" y2="-70.146"/>
	
		<line fill="none" stroke="#000000" stroke-linecap="round" stroke-miterlimit="10" x1="60.749" y1="-35.074" x2="80.999" y2="-70.146"/>
	<line fill="none" stroke="#000000" stroke-linecap="round" stroke-miterlimit="10" x1="60.75" y1="-105.221" x2="121.499" y2="0"/>
	<line fill="none" stroke="#000000" stroke-linecap="round" stroke-miterlimit="10" x1="0.001" y1="0.002" x2="-40.499" y2="0"/>
	
		<line fill="none" stroke="#000000" stroke-linecap="round" stroke-miterlimit="10" x1="-20.249" y1="35.074" x2="0.001" y2="0.002"/>
	
		<line fill="none" stroke="#000000" stroke-linecap="round" stroke-miterlimit="10" x1="-20.249" y1="35.074" x2="-60.749" y2="35.075"/>
	<line fill="none" stroke="#000000" stroke-linecap="round" stroke-miterlimit="10" x1="-40.499" y1="0" x2="-60.749" y2="35.075"/>
	<line fill="none" stroke="#000000" stroke-linecap="round" stroke-miterlimit="10" x1="-40.499" y1="0" x2="-121.499" y2="0.002"/>
	<line fill="none" stroke="#000000" stroke-linecap="round" stroke-miterlimit="10" x1="-40.499" y1="0" x2="-60.749" y2="35.075"/>
	
		<line fill="none" stroke="#000000" stroke-linecap="round" stroke-miterlimit="10" x1="-67.499" y1="0.002" x2="-87.749" y2="35.076"/>
	
		<line fill="none" stroke="#000000" stroke-linecap="round" stroke-miterlimit="10" x1="-54.002" y1="0.001" x2="-74.252" y2="35.075"/>
	
		<line fill="none" stroke="#000000" stroke-linecap="round" stroke-miterlimit="10" x1="-33.749" y1="58.459" x2="-74.249" y2="58.458"/>
	<line fill="none" stroke="#000000" stroke-linecap="round" stroke-miterlimit="10" x1="-27" y1="46.769" x2="-67.5" y2="46.769"/>
	
		<line fill="none" stroke="#000000" stroke-linecap="round" stroke-miterlimit="10" x1="-60.749" y1="35.075" x2="-101.25" y2="35.075"/>
	
		<line fill="none" stroke="#000000" stroke-linecap="round" stroke-miterlimit="10" x1="-80.999" y1="0.002" x2="-101.25" y2="35.075"/>
	
		<line fill="none" stroke="#000000" stroke-linecap="round" stroke-miterlimit="10" x1="-20.249" y1="35.074" x2="-60.749" y2="35.075"/>
	
		<line fill="none" stroke="#000000" stroke-linecap="round" stroke-miterlimit="10" x1="-20.249" y1="35.074" x2="-60.752" y2="105.223"/>
	
		<line fill="none" stroke="#000000" stroke-linecap="round" stroke-miterlimit="10" x1="-40.499" y1="70.15" x2="-80.999" y2="70.149"/>
	
		<line fill="none" stroke="#000000" stroke-linecap="round" stroke-miterlimit="10" x1="-60.749" y1="35.075" x2="-80.999" y2="70.149"/>
	
		<line fill="none" stroke="#000000" stroke-linecap="round" stroke-miterlimit="10" x1="-60.752" y1="105.223" x2="-121.499" y2="0.002"/>
	
		<line fill="none" stroke="#000000" stroke-linecap="round" stroke-miterlimit="10" x1="0.001" y1="0.002" x2="-20.249" y2="-35.072"/>
	
		<line fill="none" stroke="#000000" stroke-linecap="round" stroke-miterlimit="10" x1="-40.499" y1="0.002" x2="0.001" y2="0.002"/>
	
		<line fill="none" stroke="#000000" stroke-linecap="round" stroke-miterlimit="10" x1="-40.499" y1="0.002" x2="-60.749" y2="-35.072"/>
	
		<line fill="none" stroke="#000000" stroke-linecap="round" stroke-miterlimit="10" x1="-20.249" y1="-35.072" x2="-60.749" y2="-35.072"/>
	
		<line fill="none" stroke="#000000" stroke-linecap="round" stroke-miterlimit="10" x1="-20.249" y1="-35.072" x2="-60.749" y2="-105.22"/>
	
		<line fill="none" stroke="#000000" stroke-linecap="round" stroke-miterlimit="10" x1="-20.249" y1="-35.072" x2="-60.749" y2="-35.072"/>
	
		<line fill="none" stroke="#000000" stroke-linecap="round" stroke-miterlimit="10" x1="-33.749" y1="-58.457" x2="-74.249" y2="-58.457"/>
	
		<line fill="none" stroke="#000000" stroke-linecap="round" stroke-miterlimit="10" x1="-26.999" y1="-46.765" x2="-67.497" y2="-46.767"/>
	
		<line fill="none" stroke="#000000" stroke-linecap="round" stroke-miterlimit="10" x1="-67.499" y1="0.002" x2="-87.749" y2="-35.072"/>
	
		<line fill="none" stroke="#000000" stroke-linecap="round" stroke-miterlimit="10" x1="-54.002" y1="0.001" x2="-74.252" y2="-35.073"/>
	
		<line fill="none" stroke="#000000" stroke-linecap="round" stroke-miterlimit="10" x1="-60.749" y1="-35.072" x2="-80.999" y2="-70.146"/>
	
		<line fill="none" stroke="#000000" stroke-linecap="round" stroke-miterlimit="10" x1="-40.499" y1="-70.146" x2="-80.999" y2="-70.146"/>
	
		<line fill="none" stroke="#000000" stroke-linecap="round" stroke-miterlimit="10" x1="-40.499" y1="0.002" x2="-60.749" y2="-35.072"/>
	<line fill="none" stroke="#000000" stroke-linecap="round" stroke-miterlimit="10" x1="-40.499" y1="0.002" x2="-121.497" y2="0"/>
	
		<line fill="none" stroke="#000000" stroke-linecap="round" stroke-miterlimit="10" x1="-80.999" y1="0.002" x2="-101.246" y2="-35.072"/>
	
		<line fill="none" stroke="#000000" stroke-linecap="round" stroke-miterlimit="10" x1="-60.749" y1="-35.072" x2="-101.246" y2="-35.072"/>
	
		<line fill="none" stroke="#000000" stroke-linecap="round" stroke-miterlimit="10" x1="-121.497" y1="0" x2="-60.749" y2="-105.22"/>
</g>
</svg>
